<svg width="448" height="445" viewBox="0 0 448 445" fill="none" xmlns="http://www.w3.org/2000/svg">
<rect width="448" height="445" rx="222.5" fill="#674BB1"/>
<path d="M369.084 130.475L369.348 131.265C384.374 129.475 399.071 125.569 413 119.666C402.641 134.615 389.764 147.655 374.941 158.202L374.751 158.337L374.763 158.57C374.921 161.818 375.008 165.145 375.008 168.473C375.008 269.978 296.517 386.999 152.851 386.999H152.849C111.159 387.112 70.3026 375.417 35 353.282C40.6001 353.879 46.2279 354.182 51.8601 354.19C87.0721 354.275 121.314 342.655 149.205 321.156L150.165 320.416L148.953 320.393C115.16 319.766 86.5981 297.983 76.5175 267.945C81.1528 268.818 85.8604 269.253 90.5781 269.245C97.5657 269.244 104.523 268.332 111.275 266.532L111.248 265.702C75.7219 258.675 48.8894 227.801 48.8894 190.701V190.465C59.6899 196.295 71.7194 199.488 83.9956 199.78L85.4813 199.815L84.239 198.999C63.3422 185.259 49.5086 161.811 49.5084 135.289C49.525 121.959 53.0672 108.876 59.7705 97.3639C79.5237 121.078 103.98 140.44 131.596 154.224C159.393 168.099 189.779 176.016 220.81 177.472L221.375 177.498L221.244 176.947C219.881 171.234 219.209 165.377 219.239 159.504V159.501C219.239 117.271 253.996 83.0001 296.961 83.0001L296.962 83.0001C307.572 82.9805 318.076 85.1193 327.835 89.2865C337.593 93.4536 346.403 99.5621 353.727 107.241L353.888 107.408L354.115 107.365C371.281 104.071 387.776 97.9399 402.924 89.2262C396.924 106.559 384.929 121.194 369.084 130.475Z" fill="white" stroke="black"/>
</svg>
