<svg width="448" height="448" viewBox="0 0 448 448" fill="none" xmlns="http://www.w3.org/2000/svg">
<path d="M317.33 37.33C342.063 37.4039 365.761 47.2616 383.25 64.7502C400.738 82.2389 410.596 105.937 410.67 130.67V317.33C410.596 342.063 400.738 365.761 383.25 383.25C365.761 400.738 342.063 410.596 317.33 410.67H130.67C105.937 410.596 82.2389 400.738 64.7502 383.25C47.2616 365.761 37.4039 342.063 37.33 317.33V130.67C37.4039 105.937 47.2616 82.2389 64.7502 64.7502C82.2389 47.2616 105.937 37.4039 130.67 37.33H317.33V37.33ZM317.33 0H130.67C58.8 0 0 58.8 0 130.67V317.33C0 389.2 58.8 448 130.67 448H317.33C389.2 448 448 389.2 448 317.33V130.67C448 58.8 389.2 0 317.33 0V0Z" fill="white"/>
</svg>
